<svg width="135" height="38" viewBox="0 0 135 38" fill="none" xmlns="http://www.w3.org/2000/svg">
<g id="Group 21">
<path id="payapi" fill-rule="evenodd" clip-rule="evenodd" d="M134.657 8.59007V5.29407H133.441V8.59007H134.657ZM50.544 33.9341V26.0941H50.608C51.1627 26.9047 51.872 27.5181 52.736 27.9341C53.6 28.3501 54.544 28.5581 55.568 28.5581C56.784 28.5581 57.8453 28.3234 58.752 27.8541C59.6587 27.3847 60.416 26.7554 61.024 25.9661C61.632 25.1767 62.0853 24.2701 62.384 23.2461C62.6827 22.2221 62.832 21.1554 62.832 20.0461C62.832 18.8727 62.6827 17.7474 62.384 16.6701C62.0853 15.5927 61.6267 14.6487 61.008 13.8381C60.3893 13.0274 59.6107 12.3767 58.672 11.8861C57.7333 11.3954 56.6133 11.1501 55.312 11.1501C54.288 11.1501 53.3493 11.3527 52.496 11.7581C51.6427 12.1634 50.9387 12.8141 50.384 13.7101H50.32V11.5981H46V33.9341H50.544ZM54.352 25.1661C53.6267 25.1661 53.008 25.0167 52.496 24.7181C51.984 24.4194 51.5733 24.0301 51.264 23.5501C50.9547 23.0701 50.7307 22.5101 50.592 21.8701C50.4533 21.2301 50.384 20.5794 50.384 19.9181C50.384 19.2354 50.448 18.5741 50.576 17.9341C50.704 17.2941 50.9227 16.7287 51.232 16.2381C51.5413 15.7474 51.9467 15.3474 52.448 15.0381C52.9493 14.7287 53.5733 14.5741 54.32 14.5741C55.0453 14.5741 55.6587 14.7287 56.16 15.0381C56.6613 15.3474 57.072 15.7527 57.392 16.2541C57.712 16.7554 57.9413 17.3261 58.08 17.9661C58.2187 18.6061 58.288 19.2567 58.288 19.9181C58.288 20.5794 58.224 21.2301 58.096 21.8701C57.968 22.5101 57.7493 23.0701 57.44 23.5501C57.1307 24.0301 56.7253 24.4194 56.224 24.7181C55.7227 25.0167 55.0987 25.1661 54.352 25.1661ZM73.2418 28.1101C72.2605 28.4087 71.2578 28.5581 70.2338 28.5581C69.4445 28.5581 68.7085 28.4621 68.0258 28.2701C67.3432 28.0781 66.7458 27.7794 66.2338 27.3741C65.7218 26.9687 65.3218 26.4567 65.0338 25.8381C64.7458 25.2194 64.6018 24.4834 64.6018 23.6301C64.6018 22.6914 64.7672 21.9181 65.0978 21.3101C65.4285 20.7021 65.8552 20.2167 66.3778 19.8541C66.9005 19.4914 67.4978 19.2194 68.1698 19.0381C68.8418 18.8567 69.5192 18.7127 70.2018 18.6061C70.8845 18.4994 71.5565 18.4141 72.2178 18.3501C72.8792 18.2861 73.4658 18.1901 73.9778 18.0621C74.4898 17.9341 74.8952 17.7474 75.1938 17.5021C75.4925 17.2567 75.6312 16.8994 75.6098 16.4301C75.6098 15.9394 75.5298 15.5501 75.3698 15.2621C75.2098 14.9741 74.9965 14.7501 74.7298 14.5901C74.4632 14.4301 74.1538 14.3234 73.8018 14.2701C73.4498 14.2167 73.0712 14.1901 72.6658 14.1901C71.7698 14.1901 71.0658 14.3821 70.5538 14.7661C70.0418 15.1501 69.7432 15.7901 69.6578 16.6861H65.1138C65.1778 15.6194 65.4445 14.7341 65.9138 14.0301C66.3832 13.3261 66.9805 12.7607 67.7058 12.3341C68.4312 11.9074 69.2472 11.6034 70.1538 11.4221C71.0605 11.2407 71.9725 11.1501 72.8898 11.1501C73.7218 11.1501 74.5645 11.2087 75.4178 11.3261C76.2712 11.4434 77.0498 11.6727 77.7538 12.0141C78.4578 12.3554 79.0338 12.8301 79.4818 13.4381C79.9298 14.0461 80.1538 14.8514 80.1538 15.8541V24.4621C80.1538 25.2087 80.1965 25.9234 80.2818 26.6061C80.3672 27.2887 80.5165 27.8007 80.7298 28.1421H76.1218C76.0365 27.8861 75.9672 27.6247 75.9138 27.3581C75.8605 27.0914 75.8232 26.8194 75.8018 26.5421C75.0765 27.2887 74.2232 27.8114 73.2418 28.1101ZM71.9298 25.5501C71.5672 25.5501 71.2152 25.5181 70.8738 25.4541C70.5325 25.3901 70.2338 25.2781 69.9778 25.1181C69.7218 24.9581 69.5192 24.7394 69.3698 24.4621C69.2205 24.1847 69.1458 23.8434 69.1458 23.4381C69.1458 23.0114 69.2205 22.6594 69.3698 22.3821C69.5192 22.1047 69.7165 21.8754 69.9618 21.6941C70.2072 21.5127 70.4952 21.3687 70.8258 21.2621C71.1565 21.1554 71.4925 21.0701 71.8338 21.0061C72.1965 20.9421 72.5592 20.8887 72.9218 20.8461C73.2845 20.8034 73.6312 20.7501 73.9618 20.6861C74.2925 20.6221 74.6018 20.5421 74.8898 20.4461C75.1778 20.3501 75.4178 20.2167 75.6098 20.0461V21.7421C75.6098 21.9981 75.5832 22.3394 75.5298 22.7661C75.4765 23.1927 75.3325 23.6141 75.0978 24.0301C74.8632 24.4461 74.5005 24.8034 74.0098 25.1021C73.5192 25.4007 72.8258 25.5501 71.9298 25.5501ZM89.5397 33.0701C88.665 33.6461 87.449 33.9341 85.8917 33.9341C85.4224 33.9341 84.9584 33.9181 84.4997 33.8861C84.041 33.8541 83.577 33.8167 83.1077 33.7741V30.0301C83.5344 30.0727 83.9717 30.1154 84.4197 30.1581C84.8677 30.2007 85.3157 30.2114 85.7637 30.1901C86.361 30.1261 86.8037 29.8914 87.0917 29.4861C87.3797 29.0807 87.5237 28.6327 87.5237 28.1421C87.5237 27.7794 87.4597 27.4381 87.3317 27.1181L81.5397 11.5981H86.3717L90.1157 22.9261H90.1797L93.7957 11.5981H98.4997L91.5877 30.1901C91.097 31.5341 90.4144 32.4941 89.5397 33.0701ZM104.59 28.5261C105.379 28.5261 106.104 28.4301 106.766 28.2381C107.427 28.0461 108.019 27.7794 108.542 27.4381C109.064 27.0967 109.507 26.7074 109.87 26.2701C110.232 25.8327 110.51 25.3687 110.702 24.8781H110.766V25.7421C110.766 26.0834 110.792 26.3981 110.846 26.6861C110.899 26.9741 111 27.2247 111.15 27.4381C111.299 27.6514 111.518 27.8221 111.806 27.9501C112.094 28.0781 112.483 28.1421 112.974 28.1421C113.315 28.1421 113.646 28.0994 113.966 28.0141V26.9901C113.582 27.0541 113.283 27.0861 113.07 27.0861C112.792 27.0861 112.579 27.0274 112.43 26.9101C112.28 26.7927 112.174 26.6381 112.11 26.4461C112.046 26.2541 112.008 26.0407 111.998 25.8061C111.987 25.5714 111.982 25.3367 111.982 25.1021V15.5341C111.982 14.2754 111.528 13.2567 110.622 12.4781C109.715 11.6994 108.27 11.3101 106.286 11.3101C104.302 11.3101 102.771 11.7634 101.694 12.6701C100.616 13.5767 100.035 14.9367 99.9495 16.7501H101.166C101.251 15.2781 101.747 14.1794 102.654 13.4541C103.56 12.7287 104.75 12.3661 106.222 12.3661C107.054 12.3661 107.758 12.4514 108.334 12.6221C108.91 12.7927 109.379 13.0274 109.742 13.3261C110.104 13.6247 110.371 13.9661 110.542 14.3501C110.712 14.7341 110.798 15.1501 110.798 15.5981C110.798 16.1741 110.766 16.6541 110.702 17.0381C110.638 17.4221 110.478 17.7367 110.222 17.9821C109.966 18.2274 109.587 18.4194 109.086 18.5581C108.584 18.6967 107.896 18.7981 107.022 18.8621L105.134 19.0221C104.472 19.0861 103.784 19.1927 103.07 19.3421C102.355 19.4914 101.704 19.7421 101.118 20.0941C100.531 20.4461 100.046 20.9261 99.6615 21.5341C99.2775 22.1421 99.0855 22.9261 99.0855 23.8861C99.0855 25.4647 99.5655 26.6327 100.526 27.3901C101.486 28.1474 102.84 28.5261 104.59 28.5261ZM101.454 26.5901C102.222 27.1767 103.278 27.4701 104.622 27.4701C106.008 27.4701 107.107 27.2194 107.918 26.7181C108.728 26.2167 109.347 25.6407 109.774 24.9901C110.2 24.3394 110.472 23.7101 110.59 23.1021C110.707 22.4941 110.766 22.0834 110.766 21.8701V18.7981C110.467 19.1607 110.014 19.4061 109.406 19.5341C108.798 19.6621 108.12 19.7581 107.374 19.8221L105.326 20.0141C104.728 20.0781 104.131 20.1687 103.534 20.2861C102.936 20.4034 102.398 20.6007 101.918 20.8781C101.438 21.1554 101.048 21.5341 100.75 22.0141C100.451 22.4941 100.302 23.1181 100.302 23.8861C100.302 25.1021 100.686 26.0034 101.454 26.5901ZM117.111 34.0301V24.7181H117.175C117.666 26.0621 118.445 27.0327 119.511 27.6301C120.578 28.2274 121.794 28.5261 123.159 28.5261C124.418 28.5261 125.511 28.3127 126.439 27.8861C127.367 27.4594 128.135 26.8674 128.743 26.1101C129.351 25.3527 129.805 24.4514 130.103 23.4061C130.402 22.3607 130.551 21.2087 130.551 19.9501C130.551 18.7981 130.402 17.6994 130.103 16.6541C129.805 15.6087 129.351 14.6914 128.743 13.9021C128.135 13.1127 127.367 12.4834 126.439 12.0141C125.511 11.5447 124.418 11.3101 123.159 11.3101C122.263 11.3101 121.469 11.4487 120.775 11.7261C120.082 12.0034 119.49 12.3501 118.999 12.7661C118.509 13.1821 118.114 13.6354 117.815 14.1261C117.517 14.6167 117.303 15.0647 117.175 15.4701H117.111V11.6941H115.895V34.0301H117.111ZM120.263 26.8461C121.042 27.2621 122.007 27.4701 123.159 27.4701C124.226 27.4701 125.149 27.2674 125.927 26.8621C126.706 26.4567 127.346 25.9127 127.847 25.2301C128.349 24.5474 128.722 23.7527 128.967 22.8461C129.213 21.9394 129.335 20.9741 129.335 19.9501C129.335 19.0114 129.218 18.0887 128.983 17.1821C128.749 16.2754 128.386 15.4647 127.895 14.7501C127.405 14.0354 126.77 13.4594 125.991 13.0221C125.213 12.5847 124.269 12.3661 123.159 12.3661C122.071 12.3661 121.143 12.5794 120.375 13.0061C119.607 13.4327 118.983 13.9981 118.503 14.7021C118.023 15.4061 117.677 16.2114 117.463 17.1181C117.25 18.0247 117.143 18.9687 117.143 19.9501C117.143 20.9314 117.239 21.8754 117.431 22.7821C117.623 23.6887 117.949 24.4887 118.407 25.1821C118.866 25.8754 119.485 26.4301 120.263 26.8461ZM133.441 11.6941H134.657V28.1421H133.441V11.6941Z" fill="#36536B"/>
<g id="Group 3">
<circle id="Oval" cx="19.1421" cy="4.99996" r="3" transform="rotate(45 19.1421 4.99996)" fill="#36536B"/>
<circle id="Oval Copy 6" cx="26.2131" cy="12.071" r="3" transform="rotate(45 26.2131 12.071)" fill="#36536B"/>
<circle id="Oval Copy 7" cx="33.2842" cy="19.1421" r="3" transform="rotate(45 33.2842 19.1421)" fill="#36536B"/>
<circle id="Oval Copy 10" cx="12.071" cy="12.071" r="3" transform="rotate(45 12.071 12.071)" fill="#36536B"/>
<circle id="Oval Copy 9" opacity="0.5" cx="19.1421" cy="19.1421" r="3" transform="rotate(45 19.1421 19.1421)" fill="#36536B"/>
<circle id="Oval Copy 8" opacity="0.5" cx="26.2131" cy="26.2132" r="3" transform="rotate(45 26.2131 26.2132)" fill="#36536B"/>
<circle id="Oval Copy 13" cx="5" cy="19.1421" r="3" transform="rotate(45 5 19.1421)" fill="#36536B"/>
<circle id="Oval Copy 12" opacity="0.5" cx="12.071" cy="26.2132" r="3" transform="rotate(45 12.071 26.2132)" fill="#36536B"/>
<circle id="Oval Copy 11" opacity="0.25" cx="19.1421" cy="33.2843" r="3" transform="rotate(45 19.1421 33.2843)" fill="#36536B"/>
</g>
</g>
</svg>
